<svg width="12" height="12" viewBox="0 0 12 12" fill="none" xmlns="http://www.w3.org/2000/svg">
<path fill-rule="evenodd" clip-rule="evenodd" d="M6.58815 0.373073L7.92435 3.05687C8.02275 3.25127 8.20995 3.38747 8.42775 3.41987L11.426 3.85607C11.6012 3.88187 11.7608 3.97307 11.8664 4.11347C11.9744 4.25447 12.0188 4.43027 11.993 4.60367C11.972 4.74647 11.9036 4.88027 11.801 4.98107L9.62775 7.08587C9.46875 7.23587 9.39615 7.45127 9.43335 7.66427L9.97035 10.6271C10.0286 10.9811 9.79215 11.3159 9.43335 11.3885C9.28815 11.4119 9.13815 11.3885 9.00675 11.3207L6.33015 9.92627C6.13095 9.82547 5.89695 9.82547 5.70015 9.92627L3.02355 11.3207C2.69235 11.4965 2.28075 11.3747 2.10195 11.0513C2.03475 10.9223 2.01135 10.7747 2.03235 10.6319L2.56815 7.66907C2.60655 7.45847 2.53395 7.24007 2.37435 7.09007L0.201153 4.98767C0.0751531 4.86347 0.00195312 4.69487 0.00195312 4.51907C0.00195312 4.34327 0.0751531 4.17467 0.201153 4.05047C0.304353 3.94727 0.439953 3.87947 0.588153 3.86087L3.58635 3.42467C3.80355 3.39167 3.99075 3.25847 4.08735 3.06167L5.37855 0.373073C5.49075 0.145673 5.72775 0.00047295 5.98815 0.00527295H6.06795C6.29295 0.0334729 6.48975 0.171473 6.58815 0.373073Z" fill="#FCCB40"/>
</svg>
